<svg width="108" height="145" viewBox="0 0 108 145" fill="none" xmlns="http://www.w3.org/2000/svg">
<g filter="url(#filter0_d_14_481)">
<path d="M4.81153 128.352C4.81153 126.976 5.09153 125.776 5.65153 124.752C6.21153 123.712 6.98753 122.912 7.97953 122.352C8.97153 121.776 10.1075 121.488 11.3875 121.488C13.0355 121.488 14.3955 121.904 15.4675 122.736C16.5555 123.552 17.2835 124.704 17.6515 126.192H14.0275C13.8355 125.616 13.5075 125.168 13.0435 124.848C12.5955 124.512 12.0355 124.344 11.3635 124.344C10.4035 124.344 9.64353 124.696 9.08353 125.4C8.52353 126.088 8.24353 127.072 8.24353 128.352C8.24353 129.616 8.52353 130.6 9.08353 131.304C9.64353 131.992 10.4035 132.336 11.3635 132.336C12.7235 132.336 13.6115 131.728 14.0275 130.512H17.6515C17.2835 131.952 16.5555 133.096 15.4675 133.944C14.3795 134.792 13.0195 135.216 11.3875 135.216C10.1075 135.216 8.97153 134.936 7.97953 134.376C6.98753 133.8 6.21153 133 5.65153 131.976C5.09153 130.936 4.81153 129.728 4.81153 128.352ZM23.473 117.24V135H20.113V117.24H23.473ZM25.9287 128.304C25.9287 126.96 26.1927 125.768 26.7207 124.728C27.2647 123.688 27.9927 122.888 28.9047 122.328C29.8327 121.768 30.8647 121.488 32.0007 121.488C32.9927 121.488 33.8567 121.688 34.5927 122.088C35.3447 122.488 35.9447 122.992 36.3927 123.6V121.704H39.7767V135H36.3927V133.056C35.9607 133.68 35.3607 134.2 34.5927 134.616C33.8407 135.016 32.9687 135.216 31.9767 135.216C30.8567 135.216 29.8327 134.928 28.9047 134.352C27.9927 133.776 27.2647 132.968 26.7207 131.928C26.1927 130.872 25.9287 129.664 25.9287 128.304ZM36.3927 128.352C36.3927 127.536 36.2327 126.84 35.9127 126.264C35.5927 125.672 35.1607 125.224 34.6167 124.92C34.0727 124.6 33.4887 124.44 32.8647 124.44C32.2407 124.44 31.6647 124.592 31.1367 124.896C30.6087 125.2 30.1767 125.648 29.8407 126.24C29.5207 126.816 29.3607 127.504 29.3607 128.304C29.3607 129.104 29.5207 129.808 29.8407 130.416C30.1767 131.008 30.6087 131.464 31.1367 131.784C31.6807 132.104 32.2567 132.264 32.8647 132.264C33.4887 132.264 34.0727 132.112 34.6167 131.808C35.1607 131.488 35.5927 131.04 35.9127 130.464C36.2327 129.872 36.3927 129.168 36.3927 128.352ZM35.9367 118.248L30.4167 120.768V118.368L35.9367 115.512V118.248ZM48.1463 135.216C47.0583 135.216 46.0823 135.024 45.2183 134.64C44.3543 134.24 43.6663 133.704 43.1543 133.032C42.6583 132.36 42.3863 131.616 42.3383 130.8H45.7223C45.7863 131.312 46.0343 131.736 46.4663 132.072C46.9143 132.408 47.4663 132.576 48.1223 132.576C48.7623 132.576 49.2583 132.448 49.6103 132.192C49.9783 131.936 50.1623 131.608 50.1623 131.208C50.1623 130.776 49.9383 130.456 49.4903 130.248C49.0583 130.024 48.3623 129.784 47.4023 129.528C46.4103 129.288 45.5943 129.04 44.9543 128.784C44.3303 128.528 43.7863 128.136 43.3223 127.608C42.8743 127.08 42.6503 126.368 42.6503 125.472C42.6503 124.736 42.8583 124.064 43.2743 123.456C43.7063 122.848 44.3143 122.368 45.0983 122.016C45.8983 121.664 46.8343 121.488 47.9063 121.488C49.4903 121.488 50.7543 121.888 51.6983 122.688C52.6423 123.472 53.1623 124.536 53.2583 125.88H50.0423C49.9943 125.352 49.7703 124.936 49.3703 124.632C48.9863 124.312 48.4663 124.152 47.8103 124.152C47.2023 124.152 46.7303 124.264 46.3943 124.488C46.0743 124.712 45.9143 125.024 45.9143 125.424C45.9143 125.872 46.1383 126.216 46.5863 126.456C47.0343 126.68 47.7303 126.912 48.6743 127.152C49.6343 127.392 50.4263 127.64 51.0503 127.896C51.6743 128.152 52.2103 128.552 52.6583 129.096C53.1223 129.624 53.3623 130.328 53.3783 131.208C53.3783 131.976 53.1623 132.664 52.7303 133.272C52.3143 133.88 51.7063 134.36 50.9063 134.712C50.1223 135.048 49.2023 135.216 48.1463 135.216ZM61.2245 135.216C60.1365 135.216 59.1605 135.024 58.2965 134.64C57.4325 134.24 56.7445 133.704 56.2325 133.032C55.7365 132.36 55.4645 131.616 55.4165 130.8H58.8005C58.8645 131.312 59.1125 131.736 59.5445 132.072C59.9925 132.408 60.5445 132.576 61.2005 132.576C61.8405 132.576 62.3365 132.448 62.6885 132.192C63.0565 131.936 63.2405 131.608 63.2405 131.208C63.2405 130.776 63.0165 130.456 62.5685 130.248C62.1365 130.024 61.4405 129.784 60.4805 129.528C59.4885 129.288 58.6725 129.04 58.0325 128.784C57.4085 128.528 56.8645 128.136 56.4005 127.608C55.9525 127.08 55.7285 126.368 55.7285 125.472C55.7285 124.736 55.9365 124.064 56.3525 123.456C56.7845 122.848 57.3925 122.368 58.1765 122.016C58.9765 121.664 59.9125 121.488 60.9845 121.488C62.5685 121.488 63.8325 121.888 64.7765 122.688C65.7205 123.472 66.2405 124.536 66.3365 125.88H63.1205C63.0725 125.352 62.8485 124.936 62.4485 124.632C62.0645 124.312 61.5445 124.152 60.8885 124.152C60.2805 124.152 59.8085 124.264 59.4725 124.488C59.1525 124.712 58.9925 125.024 58.9925 125.424C58.9925 125.872 59.2165 126.216 59.6645 126.456C60.1125 126.68 60.8085 126.912 61.7525 127.152C62.7125 127.392 63.5045 127.64 64.1285 127.896C64.7525 128.152 65.2885 128.552 65.7365 129.096C66.2005 129.624 66.4405 130.328 66.4565 131.208C66.4565 131.976 66.2405 132.664 65.8085 133.272C65.3925 133.88 64.7845 134.36 63.9845 134.712C63.2005 135.048 62.2805 135.216 61.2245 135.216ZM70.9186 120.12C70.3266 120.12 69.8306 119.936 69.4306 119.568C69.0466 119.184 68.8546 118.712 68.8546 118.152C68.8546 117.592 69.0466 117.128 69.4306 116.76C69.8306 116.376 70.3266 116.184 70.9186 116.184C71.5106 116.184 71.9986 116.376 72.3826 116.76C72.7826 117.128 72.9826 117.592 72.9826 118.152C72.9826 118.712 72.7826 119.184 72.3826 119.568C71.9986 119.936 71.5106 120.12 70.9186 120.12ZM72.5746 121.704V135H69.2146V121.704H72.5746ZM75.0303 128.352C75.0303 126.976 75.3103 125.776 75.8703 124.752C76.4303 123.712 77.2063 122.912 78.1983 122.352C79.1903 121.776 80.3263 121.488 81.6063 121.488C83.2543 121.488 84.6143 121.904 85.6863 122.736C86.7743 123.552 87.5023 124.704 87.8703 126.192H84.2463C84.0543 125.616 83.7263 125.168 83.2623 124.848C82.8143 124.512 82.2543 124.344 81.5823 124.344C80.6223 124.344 79.8623 124.696 79.3023 125.4C78.7423 126.088 78.4623 127.072 78.4623 128.352C78.4623 129.616 78.7423 130.6 79.3023 131.304C79.8623 131.992 80.6223 132.336 81.5823 132.336C82.9423 132.336 83.8303 131.728 84.2463 130.512H87.8703C87.5023 131.952 86.7743 133.096 85.6863 133.944C84.5983 134.792 83.2383 135.216 81.6063 135.216C80.3263 135.216 79.1903 134.936 78.1983 134.376C77.2063 133.8 76.4303 133 75.8703 131.976C75.3103 130.936 75.0303 129.728 75.0303 128.352ZM96.2358 135.216C94.9558 135.216 93.8038 134.936 92.7798 134.376C91.7558 133.8 90.9478 132.992 90.3558 131.952C89.7798 130.912 89.4918 129.712 89.4918 128.352C89.4918 126.992 89.7878 125.792 90.3798 124.752C90.9878 123.712 91.8118 122.912 92.8518 122.352C93.8918 121.776 95.0518 121.488 96.3318 121.488C97.6118 121.488 98.7718 121.776 99.8118 122.352C100.852 122.912 101.668 123.712 102.26 124.752C102.868 125.792 103.172 126.992 103.172 128.352C103.172 129.712 102.86 130.912 102.236 131.952C101.628 132.992 100.796 133.8 99.7398 134.376C98.6998 134.936 97.5318 135.216 96.2358 135.216ZM96.2358 132.288C96.8438 132.288 97.4118 132.144 97.9398 131.856C98.4838 131.552 98.9158 131.104 99.2358 130.512C99.5558 129.92 99.7158 129.2 99.7158 128.352C99.7158 127.088 99.3798 126.12 98.7078 125.448C98.0518 124.76 97.2438 124.416 96.2838 124.416C95.3238 124.416 94.5158 124.76 93.8598 125.448C93.2198 126.12 92.8998 127.088 92.8998 128.352C92.8998 129.616 93.2118 130.592 93.8358 131.28C94.4758 131.952 95.2758 132.288 96.2358 132.288Z" fill="#47585B"/>
<g clip-path="url(#clip0_14_481)">
<path d="M91.1756 64.7451V61.377C91.1756 58.3083 88.7568 55.8007 85.7263 55.6431V28.1786H89.0784C90.2364 28.1786 91.1756 27.2397 91.1756 26.0814V17.0618C91.1756 16.0771 90.4905 15.225 89.5289 15.0135L53.9506 7.18796C53.6534 7.1226 53.3462 7.1226 53.0494 7.18796L17.4711 15.0138C16.5095 15.2253 15.8244 16.0775 15.8244 17.0621V26.0814C15.8244 27.2397 16.7636 28.1786 17.9216 28.1786H21.2737V55.6434C18.2432 55.8007 15.8244 58.3083 15.8244 61.3773V64.7455C13.0857 65.2387 11 67.6341 11 70.5126V75.7637C11 76.9221 11.9392 77.861 13.0972 77.861H17.9216H89.0784H93.9027C95.0608 77.861 96 76.9221 96 75.7637V70.5126C96 67.6341 93.9139 65.2387 91.1756 64.7451ZM20.0189 61.377C20.0189 60.5199 20.7162 59.8226 21.5733 59.8226H85.4267C86.2838 59.8226 86.9811 60.5199 86.9811 61.377V64.6469H20.0189V61.377ZM31.4384 55.6281H25.4682V28.79H31.4384V55.6281ZM54.6692 28.1786V55.6281H52.3311V28.1786H54.6692ZM64.8342 55.6281H58.8637V28.79H64.8342V55.6281ZM81.5318 55.6281H75.5616V28.79H81.5318V55.6281ZM48.1363 28.79V55.6281H42.1658V28.79H48.1363ZM15.1945 70.5126C15.1945 69.5912 15.9443 68.8418 16.8653 68.8418H17.9213H20.0185H86.9808H89.078H90.134C91.0554 68.8418 91.8048 69.5915 91.8048 70.5126V73.6665H86.9804H20.0189H15.1945V70.5126ZM71.3671 55.6281H69.0287V28.1786H71.3671V55.6281ZM20.0189 18.748L53.5 11.3835L86.9811 18.748V23.9838H20.0189V18.748ZM37.9713 28.1786V55.6281H35.6329V28.1786H37.9713Z" fill="#FFBA08"/>
</g>
</g>
<defs>
<filter id="filter0_d_14_481" x="0.811523" y="0" width="106.36" height="143.216" filterUnits="userSpaceOnUse" color-interpolation-filters="sRGB">
<feFlood flood-opacity="0" result="BackgroundImageFix"/>
<feColorMatrix in="SourceAlpha" type="matrix" values="0 0 0 0 0 0 0 0 0 0 0 0 0 0 0 0 0 0 127 0" result="hardAlpha"/>
<feOffset dy="4"/>
<feGaussianBlur stdDeviation="2"/>
<feComposite in2="hardAlpha" operator="out"/>
<feColorMatrix type="matrix" values="0 0 0 0 0 0 0 0 0 0 0 0 0 0 0 0 0 0 0.25 0"/>
<feBlend mode="normal" in2="BackgroundImageFix" result="effect1_dropShadow_14_481"/>
<feBlend mode="normal" in="SourceGraphic" in2="effect1_dropShadow_14_481" result="shape"/>
</filter>
<clipPath id="clip0_14_481">
<rect width="85" height="85" fill="white" transform="translate(11)"/>
</clipPath>
</defs>
</svg>
